<svg width="803" height="342" viewBox="0 0 803 342" fill="none" xmlns="http://www.w3.org/2000/svg">
<rect x="36" width="268" height="72" rx="36" fill="#EEE1D6"/>
<rect x="543" y="180" width="260" height="72" rx="36" fill="#EEE1D6"/>
<rect y="270" width="180" height="72" rx="36" fill="#EEE1D6"/>
<rect x="339" y="181" width="190" height="70" rx="35" stroke="#EEE1D6" stroke-width="2"/>
<rect x="488" y="1" width="310" height="70" rx="35" stroke="#063128" stroke-width="2"/>
<rect x="202" y="90" width="328" height="72" rx="36" fill="#063128"/>
<rect x="531" y="270" width="222" height="72" rx="36" fill="#063128"/>
<rect x="317" width="72" height="72" rx="36" fill="#00B0B9"/>
<rect x="117" y="90" width="72" height="72" rx="36" fill="#00B0B9"/>
<rect x="278" y="270" width="155" height="72" rx="36" fill="#00B0B9"/>
<rect x="543" y="90" width="72" height="72" rx="36" fill="#00B0B9"/>
<rect x="193" y="270" width="72" height="72" rx="36" fill="#F25B4B"/>
<rect x="248" y="180" width="77" height="72" rx="36" fill="#063128"/>
<rect x="18" y="181" width="216" height="70" rx="35" stroke="#063128" stroke-width="2"/>
<rect x="628" y="90" width="129" height="72" rx="36" fill="#F25B4B"/>
<rect x="402" width="72" height="72" rx="36" fill="#EEE1D6"/>
<rect x="447" y="271" width="70" height="70" rx="35" stroke="#EEE1D6" stroke-width="2"/>
<rect x="33" y="91" width="70" height="70" rx="35" stroke="#EEE1D6" stroke-width="2"/>
</svg>
