<svg width="571" height="570" viewBox="0 0 571 570" fill="none" xmlns="http://www.w3.org/2000/svg">
<path fill-rule="evenodd" clip-rule="evenodd" d="M235.591 485.502C376.92 485.502 491.49 370.932 491.49 229.603C491.49 182.712 478.879 138.768 456.862 100.976C525.54 146.866 570.769 225.101 570.769 313.899C570.769 455.229 456.199 569.799 314.869 569.799C220.431 569.799 137.94 518.641 93.5982 442.527C134.226 469.674 183.06 485.502 235.591 485.502Z" fill="#0A193B"/>
<path d="M337.511 177.42C337.511 265.253 266.092 336.54 177.888 336.54C89.684 336.54 18.2654 265.253 18.2654 177.42C18.2654 89.5864 89.684 18.2988 177.888 18.2988C266.092 18.2988 337.511 89.5864 337.511 177.42Z" stroke="#0A193B" stroke-width="35"/>
<path d="M179.393 78.0703V177.42H251.647" stroke="#0A193B" stroke-width="35" stroke-linecap="round"/>
</svg>
