<svg width="590" height="636" viewBox="0 0 590 636" fill="none" xmlns="http://www.w3.org/2000/svg">
<path d="M430.84 158.5C428.44 154.5 406.174 141.167 395.34 135C388.674 128.667 371.914 118.169 365.84 116C358.84 113.5 259.34 90.4999 245.84 91.4999C232.34 92.4999 150.84 161.5 140.34 167.5C129.84 173.5 113.84 205.5 134.84 209C155.84 212.5 249.84 154 255.84 153.5C261.84 153 315.34 165 315.34 167.5C315.34 170 246.84 271.5 233.84 290C220.84 308.5 208.34 350.5 243.34 372C278.34 393.5 358.84 446.5 358.84 451C358.84 455.5 296.84 593 297.84 616C298.84 639 320.84 637.5 333.84 633C346.84 628.5 414.84 496.5 431.84 461.5C448.84 426.5 435.84 418 425.34 407.5C414.84 397 336.34 344 333.84 343.5C331.34 343 395.34 237.5 398.34 237.5C401.34 237.5 424.34 298.5 435.84 309C447.34 319.5 546.84 314 572.34 309C597.84 304 593.34 273 572.34 271.5C555.54 270.3 502.007 265 477.34 262.5C462.84 229.5 433.24 162.5 430.84 158.5Z" fill="#7A332B"/>
<circle cx="454.34" cy="59" r="59" fill="#7A332B"/>
<path d="M247.34 422.5C232.007 412 200.54 387.4 197.34 373L161.34 419C125.34 420.167 46.8403 424.5 20.8403 432.5C-11.6597 442.5 -0.659653 471.5 16.8403 478C34.3403 484.5 179.34 491.5 197.34 487.5C211.74 484.3 236.674 442.833 247.34 422.5Z" fill="#7A332B"/>
</svg>
