<svg width="3274" height="634" viewBox="0 0 3274 634" fill="none" xmlns="http://www.w3.org/2000/svg">
<path d="M106.913 411.3L133.913 280.8H300.413C331.013 280.8 355.913 276.9 375.113 269.1C394.313 261.3 408.413 250.8 417.413 237.6C426.413 223.8 430.913 207.9 430.913 189.9C430.913 171.9 423.713 157.5 409.313 146.7C395.513 135.9 372.713 130.5 340.913 130.5H166.313L194.213 -5.14984e-05H366.113C410.513 -5.14984e-05 448.313 7.49996 479.513 22.5C510.713 37.5 534.413 58.2 550.613 84.6C566.813 111 574.913 141.3 574.913 175.5C574.913 219.9 563.513 260.1 540.713 296.1C517.913 331.5 484.613 359.7 440.813 380.7C397.013 401.1 343.913 411.3 281.513 411.3H106.913ZM0.71328 621L133.013 -5.14984e-05H272.513L140.213 621H0.71328ZM358.013 621L241.913 351.9H376.013L503.813 621H358.013ZM836.455 633.6C762.055 633.6 705.055 615.6 665.455 579.6C626.455 543.6 606.955 497.1 606.955 440.1C606.955 431.1 607.255 421.8 607.855 412.2C609.055 402 610.855 392.1 613.255 382.5L695.155 -5.14984e-05H833.755L753.655 375.3C751.855 383.1 750.655 390.6 750.055 397.8C749.455 404.4 749.155 411 749.155 417.6C749.155 474.6 782.155 503.1 848.155 503.1C888.355 503.1 921.955 492 948.955 469.8C976.555 447 994.555 415.5 1002.95 375.3L1083.05 -5.14984e-05H1219.85L1137.95 382.5C1121.15 462.3 1086.95 524.1 1035.35 567.9C983.755 611.7 917.455 633.6 836.455 633.6ZM1492 621L1404.7 -5.14984e-05H1540.6L1627.9 621H1492ZM1183.3 621L1315.6 -5.14984e-05H1447.9L1315.6 621H1183.3ZM1584.7 621L1717 -5.14984e-05H1849.3L1717 621H1584.7ZM1887.84 398.7L1912.14 169.2L1948.14 -5.14984e-05H2088.54L2052.54 169.2L1979.64 398.7H1887.84ZM1895.04 633.6C1872.24 633.6 1854.24 627.3 1841.04 614.7C1827.84 601.5 1821.24 584.1 1821.24 562.5C1821.24 536.1 1829.34 515.1 1845.54 499.5C1862.34 483.9 1882.44 476.1 1905.84 476.1C1929.24 476.1 1947.54 482.7 1960.74 495.9C1973.94 509.1 1980.54 526.5 1980.54 548.1C1980.54 573.9 1972.14 594.6 1955.34 610.2C1939.14 625.8 1919.04 633.6 1895.04 633.6ZM2124.93 398.7L2149.23 169.2L2185.23 -5.14984e-05H2325.63L2289.63 169.2L2216.73 398.7H2124.93ZM2132.13 633.6C2109.33 633.6 2091.33 627.3 2078.13 614.7C2064.93 601.5 2058.33 584.1 2058.33 562.5C2058.33 536.1 2066.43 515.1 2082.63 499.5C2099.43 483.9 2119.53 476.1 2142.93 476.1C2166.33 476.1 2184.63 482.7 2197.83 495.9C2211.03 509.1 2217.63 526.5 2217.63 548.1C2217.63 573.9 2209.23 594.6 2192.43 610.2C2176.23 625.8 2156.13 633.6 2132.13 633.6ZM2362.02 398.7L2386.33 169.2L2422.33 -5.14984e-05H2562.73L2526.73 169.2L2453.83 398.7H2362.02ZM2369.23 633.6C2346.43 633.6 2328.43 627.3 2315.23 614.7C2302.02 601.5 2295.42 584.1 2295.42 562.5C2295.42 536.1 2303.53 515.1 2319.73 499.5C2336.53 483.9 2356.63 476.1 2380.03 476.1C2403.43 476.1 2421.72 482.7 2434.92 495.9C2448.13 509.1 2454.73 526.5 2454.73 548.1C2454.73 573.9 2446.33 594.6 2429.53 610.2C2413.33 625.8 2393.23 633.6 2369.23 633.6ZM2599.12 398.7L2623.42 169.2L2659.42 -5.14984e-05H2799.82L2763.82 169.2L2690.92 398.7H2599.12ZM2606.32 633.6C2583.52 633.6 2565.52 627.3 2552.32 614.7C2539.12 601.5 2532.52 584.1 2532.52 562.5C2532.52 536.1 2540.62 515.1 2556.82 499.5C2573.62 483.9 2593.72 476.1 2617.12 476.1C2640.52 476.1 2658.82 482.7 2672.02 495.9C2685.22 509.1 2691.82 526.5 2691.82 548.1C2691.82 573.9 2683.42 594.6 2666.62 610.2C2650.42 625.8 2630.32 633.6 2606.32 633.6ZM2836.21 398.7L2860.51 169.2L2896.51 -5.14984e-05H3036.91L3000.91 169.2L2928.01 398.7H2836.21ZM2843.41 633.6C2820.61 633.6 2802.61 627.3 2789.41 614.7C2776.21 601.5 2769.61 584.1 2769.61 562.5C2769.61 536.1 2777.71 515.1 2793.91 499.5C2810.71 483.9 2830.81 476.1 2854.21 476.1C2877.61 476.1 2895.91 482.7 2909.11 495.9C2922.31 509.1 2928.91 526.5 2928.91 548.1C2928.91 573.9 2920.51 594.6 2903.71 610.2C2887.51 625.8 2867.41 633.6 2843.41 633.6ZM3073.31 398.7L3097.61 169.2L3133.61 -5.14984e-05H3274.01L3238.01 169.2L3165.11 398.7H3073.31ZM3080.51 633.6C3057.71 633.6 3039.71 627.3 3026.51 614.7C3013.31 601.5 3006.71 584.1 3006.71 562.5C3006.71 536.1 3014.81 515.1 3031.01 499.5C3047.81 483.9 3067.91 476.1 3091.31 476.1C3114.71 476.1 3133.01 482.7 3146.21 495.9C3159.41 509.1 3166.01 526.5 3166.01 548.1C3166.01 573.9 3157.61 594.6 3140.81 610.2C3124.61 625.8 3104.51 633.6 3080.51 633.6Z" fill="#FBBCB6"/>
</svg>
